<?xml version="1.0" standalone="no"?>
<svg xmlns="http://www.w3.org/2000/svg" width="500" height="500"><defs><clipPath id="clip-path-dot-color"><circle cx="30" cy="206" r="11" transform="rotate(0,30,206)"/><path d="M 19 239v 22h 11a 11 11, 0, 0, 0, 0 -22" transform="rotate(180,30,250)"/><path d="M 19 283v 22h 11a 11 11, 0, 0, 0, 0 -22" transform="rotate(180,30,294)"/><rect x="41" y="239" width="22" height="22" transform="rotate(0,52,250)"/><path d="M 41 283v 22h 11a 11 11, 0, 0, 0, 0 -22" transform="rotate(0,52,294)"/><path d="M 63 239v 22h 22v -11a 11 11, 0, 0, 0, -11 -11" transform="rotate(0,74,250)"/><path d="M 63 261v 22h 11a 11 11, 0, 0, 0, 0 -22" transform="rotate(90,74,272)"/><circle cx="96" cy="228" r="11" transform="rotate(0,96,228)"/><circle cx="96" cy="294" r="11" transform="rotate(0,96,294)"/><path d="M 107 195v 22h 11a 11 11, 0, 0, 0, 0 -22" transform="rotate(180,118,206)"/><circle cx="118" cy="272" r="11" transform="rotate(0,118,272)"/><rect x="129" y="195" width="22" height="22" transform="rotate(0,140,206)"/><path d="M 129 239v 22h 11a 11 11, 0, 0, 0, 0 -22" transform="rotate(180,140,250)"/><path d="M 129 283v 22h 11a 11 11, 0, 0, 0, 0 -22" transform="rotate(180,140,294)"/><path d="M 151 195v 22h 11a 11 11, 0, 0, 0, 0 -22" transform="rotate(0,162,206)"/><path d="M 151 239v 22h 11a 11 11, 0, 0, 0, 0 -22" transform="rotate(0,162,250)"/><path d="M 151 283v 22h 11a 11 11, 0, 0, 0, 0 -22" transform="rotate(0,162,294)"/><path d="M 173 217v 22h 11a 11 11, 0, 0, 0, 0 -22" transform="rotate(180,184,228)"/><path d="M 195 41v 22h 22v -11a 11 11, 0, 0, 0, -11 -11" transform="rotate(-90,206,52)"/><rect x="195" y="63" width="22" height="22" transform="rotate(0,206,74)"/><rect x="195" y="85" width="22" height="22" transform="rotate(0,206,96)"/><rect x="195" y="107" width="22" height="22" transform="rotate(0,206,118)"/><rect x="195" y="129" width="22" height="22" transform="rotate(0,206,140)"/><rect x="195" y="151" width="22" height="22" transform="rotate(0,206,162)"/><path d="M 195 173v 22h 11a 11 11, 0, 0, 0, 0 -22" transform="rotate(90,206,184)"/><rect x="195" y="217" width="22" height="22" transform="rotate(0,206,228)"/><circle cx="206" cy="272" r="11" transform="rotate(0,206,272)"/><path d="M 195 349v 22h 22v -11a 11 11, 0, 0, 0, -11 -11" transform="rotate(-90,206,360)"/><path d="M 195 371v 22h 11a 11 11, 0, 0, 0, 0 -22" transform="rotate(90,206,382)"/><path d="M 195 459v 22h 11a 11 11, 0, 0, 0, 0 -22" transform="rotate(180,206,470)"/><path d="M 217 19v 22h 22v -11a 11 11, 0, 0, 0, -11 -11" transform="rotate(-90,228,30)"/><rect x="217" y="41" width="22" height="22" transform="rotate(0,228,52)"/><path d="M 217 129v 22h 11a 11 11, 0, 0, 0, 0 -22" transform="rotate(0,228,140)"/><path d="M 217 195v 22h 22v -11a 11 11, 0, 0, 0, -11 -11" transform="rotate(-90,228,206)"/><rect x="217" y="217" width="22" height="22" transform="rotate(0,228,228)"/><path d="M 217 239v 22h 11a 11 11, 0, 0, 0, 0 -22" transform="rotate(90,228,250)"/><path d="M 217 305v 22h 11a 11 11, 0, 0, 0, 0 -22" transform="rotate(-90,228,316)"/><rect x="217" y="327" width="22" height="22" transform="rotate(0,228,338)"/><rect x="217" y="349" width="22" height="22" transform="rotate(0,228,360)"/><path d="M 217 393v 22h 22v -11a 11 11, 0, 0, 0, -11 -11" transform="rotate(-90,228,404)"/><path d="M 217 415v 22h 22v -11a 11 11, 0, 0, 0, -11 -11" transform="rotate(180,228,426)"/><path d="M 217 459v 22h 11a 11 11, 0, 0, 0, 0 -22" transform="rotate(0,228,470)"/><path d="M 239 19v 22h 22v -11a 11 11, 0, 0, 0, -11 -11" transform="rotate(0,250,30)"/><path d="M 239 41v 22h 22v -11a 11 11, 0, 0, 0, -11 -11" transform="rotate(90,250,52)"/><path d="M 239 151v 22h 11a 11 11, 0, 0, 0, 0 -22" transform="rotate(-90,250,162)"/><rect x="239" y="173" width="22" height="22" transform="rotate(0,250,184)"/><path d="M 239 195v 22h 22v -11a 11 11, 0, 0, 0, -11 -11" transform="rotate(90,250,206)"/><circle cx="250" cy="294" r="11" transform="rotate(0,250,294)"/><rect x="239" y="327" width="22" height="22" transform="rotate(0,250,338)"/><rect x="239" y="349" width="22" height="22" transform="rotate(0,250,360)"/><rect x="239" y="393" width="22" height="22" transform="rotate(0,250,404)"/><rect x="239" y="415" width="22" height="22" transform="rotate(0,250,426)"/><path d="M 239 437v 22h 11a 11 11, 0, 0, 0, 0 -22" transform="rotate(90,250,448)"/><path d="M 261 107v 22h 11a 11 11, 0, 0, 0, 0 -22" transform="rotate(-90,272,118)"/><path d="M 261 129v 22h 11a 11 11, 0, 0, 0, 0 -22" transform="rotate(90,272,140)"/><path d="M 261 217v 22h 11a 11 11, 0, 0, 0, 0 -22" transform="rotate(180,272,228)"/><path d="M 261 305v 22h 11a 11 11, 0, 0, 0, 0 -22" transform="rotate(-90,272,316)"/><rect x="261" y="327" width="22" height="22" transform="rotate(0,272,338)"/><rect x="261" y="349" width="22" height="22" transform="rotate(0,272,360)"/><rect x="261" y="393" width="22" height="22" transform="rotate(0,272,404)"/><path d="M 261 415v 22h 22v -11a 11 11, 0, 0, 0, -11 -11" transform="rotate(90,272,426)"/><path d="M 283 19v 22h 11a 11 11, 0, 0, 0, 0 -22" transform="rotate(-90,294,30)"/><rect x="283" y="41" width="22" height="22" transform="rotate(0,294,52)"/><rect x="283" y="63" width="22" height="22" transform="rotate(0,294,74)"/><path d="M 283 85v 22h 11a 11 11, 0, 0, 0, 0 -22" transform="rotate(90,294,96)"/><path d="M 283 151v 22h 11a 11 11, 0, 0, 0, 0 -22" transform="rotate(-90,294,162)"/><path d="M 283 173v 22h 11a 11 11, 0, 0, 0, 0 -22" transform="rotate(90,294,184)"/><path d="M 283 217v 22h 11a 11 11, 0, 0, 0, 0 -22" transform="rotate(0,294,228)"/><path d="M 283 261v 22h 22v -11a 11 11, 0, 0, 0, -11 -11" transform="rotate(-90,294,272)"/><path d="M 283 283v 22h 22v -11a 11 11, 0, 0, 0, -11 -11" transform="rotate(180,294,294)"/><path d="M 283 349v 22h 22v -11a 11 11, 0, 0, 0, -11 -11" transform="rotate(0,294,360)"/><rect x="283" y="371" width="22" height="22" transform="rotate(0,294,382)"/><path d="M 283 393v 22h 22v -11a 11 11, 0, 0, 0, -11 -11" transform="rotate(90,294,404)"/><path d="M 305 195v 22h 11a 11 11, 0, 0, 0, 0 -22" transform="rotate(180,316,206)"/><path d="M 305 239v 22h 22v -11a 11 11, 0, 0, 0, -11 -11" transform="rotate(-90,316,250)"/><rect x="305" y="261" width="22" height="22" transform="rotate(0,316,272)"/><path d="M 305 283v 22h 22v -11a 11 11, 0, 0, 0, -11 -11" transform="rotate(90,316,294)"/><path d="M 305 371v 22h 11a 11 11, 0, 0, 0, 0 -22" transform="rotate(0,316,382)"/><path d="M 305 415v 22h 11a 11 11, 0, 0, 0, 0 -22" transform="rotate(-90,316,426)"/><path d="M 305 437v 22h 22v -11a 11 11, 0, 0, 0, -11 -11" transform="rotate(180,316,448)"/><rect x="327" y="195" width="22" height="22" transform="rotate(0,338,206)"/><path d="M 327 239v 22h 11a 11 11, 0, 0, 0, 0 -22" transform="rotate(0,338,250)"/><circle cx="338" cy="316" r="11" transform="rotate(0,338,316)"/><path d="M 327 349v 22h 11a 11 11, 0, 0, 0, 0 -22" transform="rotate(180,338,360)"/><rect x="327" y="437" width="22" height="22" transform="rotate(0,338,448)"/><rect x="349" y="195" width="22" height="22" transform="rotate(0,360,206)"/><path d="M 349 217v 22h 22v -11a 11 11, 0, 0, 0, -11 -11" transform="rotate(180,360,228)"/><path d="M 349 349v 22h 22v -11a 11 11, 0, 0, 0, -11 -11" transform="rotate(0,360,360)"/><rect x="349" y="371" width="22" height="22" transform="rotate(0,360,382)"/><rect x="349" y="393" width="22" height="22" transform="rotate(0,360,404)"/><rect x="349" y="415" width="22" height="22" transform="rotate(0,360,426)"/><rect x="349" y="437" width="22" height="22" transform="rotate(0,360,448)"/><path d="M 349 459v 22h 11a 11 11, 0, 0, 0, 0 -22" transform="rotate(90,360,470)"/><rect x="371" y="195" width="22" height="22" transform="rotate(0,382,206)"/><rect x="371" y="217" width="22" height="22" transform="rotate(0,382,228)"/><path d="M 371 239v 22h 22v -11a 11 11, 0, 0, 0, -11 -11" transform="rotate(180,382,250)"/><path d="M 371 283v 22h 22v -11a 11 11, 0, 0, 0, -11 -11" transform="rotate(-90,382,294)"/><path d="M 371 305v 22h 22v -11a 11 11, 0, 0, 0, -11 -11" transform="rotate(180,382,316)"/><rect x="371" y="371" width="22" height="22" transform="rotate(0,382,382)"/><path d="M 371 393v 22h 22v -11a 11 11, 0, 0, 0, -11 -11" transform="rotate(90,382,404)"/><path d="M 371 437v 22h 11a 11 11, 0, 0, 0, 0 -22" transform="rotate(0,382,448)"/><rect x="393" y="195" width="22" height="22" transform="rotate(0,404,206)"/><rect x="393" y="217" width="22" height="22" transform="rotate(0,404,228)"/><rect x="393" y="239" width="22" height="22" transform="rotate(0,404,250)"/><rect x="393" y="261" width="22" height="22" transform="rotate(0,404,272)"/><rect x="393" y="283" width="22" height="22" transform="rotate(0,404,294)"/><rect x="393" y="305" width="22" height="22" transform="rotate(0,404,316)"/><rect x="393" y="327" width="22" height="22" transform="rotate(0,404,338)"/><rect x="393" y="349" width="22" height="22" transform="rotate(0,404,360)"/><path d="M 393 371v 22h 22v -11a 11 11, 0, 0, 0, -11 -11" transform="rotate(90,404,382)"/><circle cx="404" cy="426" r="11" transform="rotate(0,404,426)"/><rect x="415" y="195" width="22" height="22" transform="rotate(0,426,206)"/><rect x="415" y="283" width="22" height="22" transform="rotate(0,426,294)"/><rect x="415" y="327" width="22" height="22" transform="rotate(0,426,338)"/><path d="M 415 393v 22h 11a 11 11, 0, 0, 0, 0 -22" transform="rotate(180,426,404)"/><path d="M 437 195v 22h 22v -11a 11 11, 0, 0, 0, -11 -11" transform="rotate(0,448,206)"/><rect x="437" y="217" width="22" height="22" transform="rotate(0,448,228)"/><rect x="437" y="239" width="22" height="22" transform="rotate(0,448,250)"/><rect x="437" y="261" width="22" height="22" transform="rotate(0,448,272)"/><rect x="437" y="283" width="22" height="22" transform="rotate(0,448,294)"/><rect x="437" y="305" width="22" height="22" transform="rotate(0,448,316)"/><path d="M 437 327v 22h 22v -11a 11 11, 0, 0, 0, -11 -11" transform="rotate(90,448,338)"/><path d="M 437 371v 22h 22v -11a 11 11, 0, 0, 0, -11 -11" transform="rotate(-90,448,382)"/><rect x="437" y="393" width="22" height="22" transform="rotate(0,448,404)"/><path d="M 437 415v 22h 11a 11 11, 0, 0, 0, 0 -22" transform="rotate(90,448,426)"/><path d="M 459 217v 22h 11a 11 11, 0, 0, 0, 0 -22" transform="rotate(0,470,228)"/><path d="M 459 283v 22h 11a 11 11, 0, 0, 0, 0 -22" transform="rotate(0,470,294)"/><path d="M 459 371v 22h 11a 11 11, 0, 0, 0, 0 -22" transform="rotate(0,470,382)"/><circle cx="470" cy="448" r="11" transform="rotate(0,470,448)"/></clipPath><clipPath id="clip-path-corners-square-color-0-0"><path clip-rule="evenodd" d="M 19 74v 44a 55 55, 0, 0, 0, 55 55h 44a 55 55, 0, 0, 0, 55 -55v -44a 55 55, 0, 0, 0, -55 -55h -44a 55 55, 0, 0, 0, -55 55M 74 41h 44a 33 33, 0, 0, 1, 33 33v 44a 33 33, 0, 0, 1, -33 33h -44a 33 33, 0, 0, 1, -33 -33v -44a 33 33, 0, 0, 1, 33 -33" transform="rotate(0,96,96)"/></clipPath><clipPath id="clip-path-corners-dot-color-0-0"><circle cx="96" cy="96" r="33" transform="rotate(0,96,96)"/></clipPath><clipPath id="clip-path-corners-square-color-1-0"><path clip-rule="evenodd" d="M 327 74v 44a 55 55, 0, 0, 0, 55 55h 44a 55 55, 0, 0, 0, 55 -55v -44a 55 55, 0, 0, 0, -55 -55h -44a 55 55, 0, 0, 0, -55 55M 382 41h 44a 33 33, 0, 0, 1, 33 33v 44a 33 33, 0, 0, 1, -33 33h -44a 33 33, 0, 0, 1, -33 -33v -44a 33 33, 0, 0, 1, 33 -33" transform="rotate(90,404,96)"/></clipPath><clipPath id="clip-path-corners-dot-color-1-0"><circle cx="404" cy="96" r="33" transform="rotate(90,404,96)"/></clipPath><clipPath id="clip-path-corners-square-color-0-1"><path clip-rule="evenodd" d="M 19 382v 44a 55 55, 0, 0, 0, 55 55h 44a 55 55, 0, 0, 0, 55 -55v -44a 55 55, 0, 0, 0, -55 -55h -44a 55 55, 0, 0, 0, -55 55M 74 349h 44a 33 33, 0, 0, 1, 33 33v 44a 33 33, 0, 0, 1, -33 33h -44a 33 33, 0, 0, 1, -33 -33v -44a 33 33, 0, 0, 1, 33 -33" transform="rotate(-90,96,404)"/></clipPath><clipPath id="clip-path-corners-dot-color-0-1"><circle cx="96" cy="404" r="33" transform="rotate(-90,96,404)"/></clipPath></defs><rect x="0" y="0" height="500" width="500" clip-path="url('#clip-path-background-color')" fill="#fff"/><rect x="0" y="0" height="500" width="500" clip-path="url('#clip-path-dot-color')" fill="#000000"/><rect x="19" y="19" height="154" width="154" clip-path="url('#clip-path-corners-square-color-0-0')" fill="#000000"/><rect x="63" y="63" height="66" width="66" clip-path="url('#clip-path-corners-dot-color-0-0')" fill="#000000"/><rect x="327" y="19" height="154" width="154" clip-path="url('#clip-path-corners-square-color-1-0')" fill="#000000"/><rect x="371" y="63" height="66" width="66" clip-path="url('#clip-path-corners-dot-color-1-0')" fill="#000000"/><rect x="19" y="327" height="154" width="154" clip-path="url('#clip-path-corners-square-color-0-1')" fill="#000000"/><rect x="63" y="371" height="66" width="66" clip-path="url('#clip-path-corners-dot-color-0-1')" fill="#000000"/></svg>