<?xml version="1.0" standalone="no"?>
<svg xmlns="http://www.w3.org/2000/svg" width="500" height="500"><defs><clipPath id="clip-path-dot-color"><circle cx="30" cy="206" r="11" transform="rotate(0,30,206)"/><path d="M 41 239v 22h 11a 11 11, 0, 0, 0, 0 -22" transform="rotate(-90,52,250)"/><path d="M 41 261v 22h 22v -11a 11 11, 0, 0, 0, -11 -11" transform="rotate(180,52,272)"/><path d="M 63 195v 22h 22v -11a 11 11, 0, 0, 0, -11 -11" transform="rotate(-90,74,206)"/><path d="M 63 217v 22h 11a 11 11, 0, 0, 0, 0 -22" transform="rotate(90,74,228)"/><path d="M 63 261v 22h 11a 11 11, 0, 0, 0, 0 -22" transform="rotate(0,74,272)"/><path d="M 85 195v 22h 11a 11 11, 0, 0, 0, 0 -22" transform="rotate(0,96,206)"/><path d="M 85 239v 22h 11a 11 11, 0, 0, 0, 0 -22" transform="rotate(180,96,250)"/><path d="M 85 283v 22h 11a 11 11, 0, 0, 0, 0 -22" transform="rotate(180,96,294)"/><path d="M 107 217v 22h 11a 11 11, 0, 0, 0, 0 -22" transform="rotate(-90,118,228)"/><rect x="107" y="239" width="22" height="22" transform="rotate(0,118,250)"/><path d="M 107 283v 22h 11a 11 11, 0, 0, 0, 0 -22" transform="rotate(0,118,294)"/><path d="M 129 195v 22h 11a 11 11, 0, 0, 0, 0 -22" transform="rotate(180,140,206)"/><rect x="129" y="239" width="22" height="22" transform="rotate(0,140,250)"/><rect x="151" y="195" width="22" height="22" transform="rotate(0,162,206)"/><path d="M 151 239v 22h 11a 11 11, 0, 0, 0, 0 -22" transform="rotate(0,162,250)"/><circle cx="162" cy="294" r="11" transform="rotate(0,162,294)"/><rect x="173" y="195" width="22" height="22" transform="rotate(0,184,206)"/><path d="M 173 217v 22h 22v -11a 11 11, 0, 0, 0, -11 -11" transform="rotate(180,184,228)"/><circle cx="184" cy="272" r="11" transform="rotate(0,184,272)"/><path d="M 195 41v 22h 11a 11 11, 0, 0, 0, 0 -22" transform="rotate(180,206,52)"/><circle cx="206" cy="96" r="11" transform="rotate(0,206,96)"/><path d="M 195 129v 22h 22v -11a 11 11, 0, 0, 0, -11 -11" transform="rotate(-90,206,140)"/><rect x="195" y="151" width="22" height="22" transform="rotate(0,206,162)"/><rect x="195" y="173" width="22" height="22" transform="rotate(0,206,184)"/><rect x="195" y="195" width="22" height="22" transform="rotate(0,206,206)"/><rect x="195" y="217" width="22" height="22" transform="rotate(0,206,228)"/><path d="M 195 239v 22h 11a 11 11, 0, 0, 0, 0 -22" transform="rotate(90,206,250)"/><path d="M 195 283v 22h 11a 11 11, 0, 0, 0, 0 -22" transform="rotate(-90,206,294)"/><rect x="195" y="305" width="22" height="22" transform="rotate(0,206,316)"/><rect x="195" y="327" width="22" height="22" transform="rotate(0,206,338)"/><path d="M 195 349v 22h 22v -11a 11 11, 0, 0, 0, -11 -11" transform="rotate(180,206,360)"/><path d="M 195 393v 22h 11a 11 11, 0, 0, 0, 0 -22" transform="rotate(-90,206,404)"/><path d="M 195 415v 22h 11a 11 11, 0, 0, 0, 0 -22" transform="rotate(90,206,426)"/><path d="M 195 459v 22h 11a 11 11, 0, 0, 0, 0 -22" transform="rotate(180,206,470)"/><path d="M 217 19v 22h 11a 11 11, 0, 0, 0, 0 -22" transform="rotate(-90,228,30)"/><rect x="217" y="41" width="22" height="22" transform="rotate(0,228,52)"/><path d="M 217 63v 22h 22v -11a 11 11, 0, 0, 0, -11 -11" transform="rotate(180,228,74)"/><path d="M 217 129v 22h 11a 11 11, 0, 0, 0, 0 -22" transform="rotate(0,228,140)"/><rect x="217" y="195" width="22" height="22" transform="rotate(0,228,206)"/><path d="M 217 217v 22h 22v -11a 11 11, 0, 0, 0, -11 -11" transform="rotate(90,228,228)"/><path d="M 217 261v 22h 11a 11 11, 0, 0, 0, 0 -22" transform="rotate(180,228,272)"/><path d="M 217 327v 22h 22v -11a 11 11, 0, 0, 0, -11 -11" transform="rotate(0,228,338)"/><path d="M 217 349v 22h 22v -11a 11 11, 0, 0, 0, -11 -11" transform="rotate(90,228,360)"/><path d="M 217 437v 22h 11a 11 11, 0, 0, 0, 0 -22" transform="rotate(-90,228,448)"/><rect x="217" y="459" width="22" height="22" transform="rotate(0,228,470)"/><path d="M 239 41v 22h 22v -11a 11 11, 0, 0, 0, -11 -11" transform="rotate(0,250,52)"/><rect x="239" y="63" width="22" height="22" transform="rotate(0,250,74)"/><path d="M 239 85v 22h 22v -11a 11 11, 0, 0, 0, -11 -11" transform="rotate(180,250,96)"/><circle cx="250" cy="162" r="11" transform="rotate(0,250,162)"/><rect x="239" y="195" width="22" height="22" transform="rotate(0,250,206)"/><rect x="239" y="261" width="22" height="22" transform="rotate(0,250,272)"/><circle cx="250" cy="316" r="11" transform="rotate(0,250,316)"/><path d="M 239 393v 22h 22v -11a 11 11, 0, 0, 0, -11 -11" transform="rotate(-90,250,404)"/><path d="M 239 415v 22h 11a 11 11, 0, 0, 0, 0 -22" transform="rotate(90,250,426)"/><rect x="239" y="459" width="22" height="22" transform="rotate(0,250,470)"/><path d="M 261 85v 22h 22v -11a 11 11, 0, 0, 0, -11 -11" transform="rotate(0,272,96)"/><path d="M 261 107v 22h 22v -11a 11 11, 0, 0, 0, -11 -11" transform="rotate(180,272,118)"/><path d="M 261 173v 22h 22v -11a 11 11, 0, 0, 0, -11 -11" transform="rotate(-90,272,184)"/><path d="M 261 195v 22h 22v -11a 11 11, 0, 0, 0, -11 -11" transform="rotate(90,272,206)"/><path d="M 261 239v 22h 22v -11a 11 11, 0, 0, 0, -11 -11" transform="rotate(-90,272,250)"/><rect x="261" y="261" width="22" height="22" transform="rotate(0,272,272)"/><path d="M 261 283v 22h 22v -11a 11 11, 0, 0, 0, -11 -11" transform="rotate(180,272,294)"/><path d="M 261 371v 22h 22v -11a 11 11, 0, 0, 0, -11 -11" transform="rotate(-90,272,382)"/><rect x="261" y="393" width="22" height="22" transform="rotate(0,272,404)"/><path d="M 261 437v 22h 11a 11 11, 0, 0, 0, 0 -22" transform="rotate(-90,272,448)"/><rect x="261" y="459" width="22" height="22" transform="rotate(0,272,470)"/><path d="M 283 19v 22h 11a 11 11, 0, 0, 0, 0 -22" transform="rotate(-90,294,30)"/><path d="M 283 41v 22h 11a 11 11, 0, 0, 0, 0 -22" transform="rotate(90,294,52)"/><path d="M 283 107v 22h 22v -11a 11 11, 0, 0, 0, -11 -11" transform="rotate(0,294,118)"/><rect x="283" y="129" width="22" height="22" transform="rotate(0,294,140)"/><rect x="283" y="151" width="22" height="22" transform="rotate(0,294,162)"/><path d="M 283 173v 22h 22v -11a 11 11, 0, 0, 0, -11 -11" transform="rotate(90,294,184)"/><path d="M 283 217v 22h 22v -11a 11 11, 0, 0, 0, -11 -11" transform="rotate(-90,294,228)"/><rect x="283" y="239" width="22" height="22" transform="rotate(0,294,250)"/><path d="M 283 283v 22h 11a 11 11, 0, 0, 0, 0 -22" transform="rotate(0,294,294)"/><circle cx="294" cy="338" r="11" transform="rotate(0,294,338)"/><path d="M 283 371v 22h 22v -11a 11 11, 0, 0, 0, -11 -11" transform="rotate(0,294,382)"/><rect x="283" y="393" width="22" height="22" transform="rotate(0,294,404)"/><path d="M 283 459v 22h 11a 11 11, 0, 0, 0, 0 -22" transform="rotate(0,294,470)"/><path d="M 305 195v 22h 22v -11a 11 11, 0, 0, 0, -11 -11" transform="rotate(-90,316,206)"/><rect x="305" y="217" width="22" height="22" transform="rotate(0,316,228)"/><path d="M 305 239v 22h 22v -11a 11 11, 0, 0, 0, -11 -11" transform="rotate(90,316,250)"/><rect x="305" y="393" width="22" height="22" transform="rotate(0,316,404)"/><path d="M 305 437v 22h 11a 11 11, 0, 0, 0, 0 -22" transform="rotate(180,316,448)"/><rect x="327" y="195" width="22" height="22" transform="rotate(0,338,206)"/><rect x="327" y="217" width="22" height="22" transform="rotate(0,338,228)"/><path d="M 327 305v 22h 11a 11 11, 0, 0, 0, 0 -22" transform="rotate(180,338,316)"/><path d="M 327 371v 22h 22v -11a 11 11, 0, 0, 0, -11 -11" transform="rotate(-90,338,382)"/><path d="M 327 393v 22h 22v -11a 11 11, 0, 0, 0, -11 -11" transform="rotate(90,338,404)"/><path d="M 327 437v 22h 11a 11 11, 0, 0, 0, 0 -22" transform="rotate(0,338,448)"/><path d="M 349 195v 22h 22v -11a 11 11, 0, 0, 0, -11 -11" transform="rotate(0,360,206)"/><rect x="349" y="217" width="22" height="22" transform="rotate(0,360,228)"/><path d="M 349 239v 22h 11a 11 11, 0, 0, 0, 0 -22" transform="rotate(90,360,250)"/><path d="M 349 305v 22h 11a 11 11, 0, 0, 0, 0 -22" transform="rotate(0,360,316)"/><path d="M 349 349v 22h 22v -11a 11 11, 0, 0, 0, -11 -11" transform="rotate(-90,360,360)"/><rect x="349" y="371" width="22" height="22" transform="rotate(0,360,382)"/><path d="M 349 459v 22h 11a 11 11, 0, 0, 0, 0 -22" transform="rotate(180,360,470)"/><path d="M 371 217v 22h 11a 11 11, 0, 0, 0, 0 -22" transform="rotate(0,382,228)"/><path d="M 371 327v 22h 11a 11 11, 0, 0, 0, 0 -22" transform="rotate(-90,382,338)"/><rect x="371" y="349" width="22" height="22" transform="rotate(0,382,360)"/><rect x="371" y="371" width="22" height="22" transform="rotate(0,382,382)"/><path d="M 371 393v 22h 11a 11 11, 0, 0, 0, 0 -22" transform="rotate(90,382,404)"/><rect x="371" y="459" width="22" height="22" transform="rotate(0,382,470)"/><circle cx="404" cy="206" r="11" transform="rotate(0,404,206)"/><path d="M 393 239v 22h 22v -11a 11 11, 0, 0, 0, -11 -11" transform="rotate(-90,404,250)"/><path d="M 393 261v 22h 11a 11 11, 0, 0, 0, 0 -22" transform="rotate(90,404,272)"/><rect x="393" y="349" width="22" height="22" transform="rotate(0,404,360)"/><rect x="393" y="371" width="22" height="22" transform="rotate(0,404,382)"/><path d="M 393 437v 22h 11a 11 11, 0, 0, 0, 0 -22" transform="rotate(-90,404,448)"/><rect x="393" y="459" width="22" height="22" transform="rotate(0,404,470)"/><rect x="415" y="239" width="22" height="22" transform="rotate(0,426,250)"/><circle cx="426" cy="294" r="11" transform="rotate(0,426,294)"/><path d="M 415 349v 22h 22v -11a 11 11, 0, 0, 0, -11 -11" transform="rotate(0,426,360)"/><rect x="415" y="371" width="22" height="22" transform="rotate(0,426,382)"/><path d="M 415 393v 22h 11a 11 11, 0, 0, 0, 0 -22" transform="rotate(90,426,404)"/><path d="M 415 459v 22h 11a 11 11, 0, 0, 0, 0 -22" transform="rotate(0,426,470)"/><path d="M 437 195v 22h 11a 11 11, 0, 0, 0, 0 -22" transform="rotate(-90,448,206)"/><rect x="437" y="217" width="22" height="22" transform="rotate(0,448,228)"/><rect x="437" y="239" width="22" height="22" transform="rotate(0,448,250)"/><path d="M 437 305v 22h 11a 11 11, 0, 0, 0, 0 -22" transform="rotate(-90,448,316)"/><path d="M 437 327v 22h 11a 11 11, 0, 0, 0, 0 -22" transform="rotate(90,448,338)"/><path d="M 459 217v 22h 22v -11a 11 11, 0, 0, 0, -11 -11" transform="rotate(0,470,228)"/><rect x="459" y="239" width="22" height="22" transform="rotate(0,470,250)"/><rect x="459" y="261" width="22" height="22" transform="rotate(0,470,272)"/><path d="M 459 283v 22h 11a 11 11, 0, 0, 0, 0 -22" transform="rotate(90,470,294)"/><circle cx="470" cy="360" r="11" transform="rotate(0,470,360)"/><circle cx="470" cy="404" r="11" transform="rotate(0,470,404)"/><circle cx="470" cy="448" r="11" transform="rotate(0,470,448)"/></clipPath><clipPath id="clip-path-corners-square-color-0-0"><path clip-rule="evenodd" d="M 19 74v 44a 55 55, 0, 0, 0, 55 55h 44a 55 55, 0, 0, 0, 55 -55v -44a 55 55, 0, 0, 0, -55 -55h -44a 55 55, 0, 0, 0, -55 55M 74 41h 44a 33 33, 0, 0, 1, 33 33v 44a 33 33, 0, 0, 1, -33 33h -44a 33 33, 0, 0, 1, -33 -33v -44a 33 33, 0, 0, 1, 33 -33" transform="rotate(0,96,96)"/></clipPath><clipPath id="clip-path-corners-dot-color-0-0"><circle cx="96" cy="96" r="33" transform="rotate(0,96,96)"/></clipPath><clipPath id="clip-path-corners-square-color-1-0"><path clip-rule="evenodd" d="M 327 74v 44a 55 55, 0, 0, 0, 55 55h 44a 55 55, 0, 0, 0, 55 -55v -44a 55 55, 0, 0, 0, -55 -55h -44a 55 55, 0, 0, 0, -55 55M 382 41h 44a 33 33, 0, 0, 1, 33 33v 44a 33 33, 0, 0, 1, -33 33h -44a 33 33, 0, 0, 1, -33 -33v -44a 33 33, 0, 0, 1, 33 -33" transform="rotate(90,404,96)"/></clipPath><clipPath id="clip-path-corners-dot-color-1-0"><circle cx="404" cy="96" r="33" transform="rotate(90,404,96)"/></clipPath><clipPath id="clip-path-corners-square-color-0-1"><path clip-rule="evenodd" d="M 19 382v 44a 55 55, 0, 0, 0, 55 55h 44a 55 55, 0, 0, 0, 55 -55v -44a 55 55, 0, 0, 0, -55 -55h -44a 55 55, 0, 0, 0, -55 55M 74 349h 44a 33 33, 0, 0, 1, 33 33v 44a 33 33, 0, 0, 1, -33 33h -44a 33 33, 0, 0, 1, -33 -33v -44a 33 33, 0, 0, 1, 33 -33" transform="rotate(-90,96,404)"/></clipPath><clipPath id="clip-path-corners-dot-color-0-1"><circle cx="96" cy="404" r="33" transform="rotate(-90,96,404)"/></clipPath></defs><rect x="0" y="0" height="500" width="500" clip-path="url('#clip-path-background-color')" fill="#fff"/><rect x="0" y="0" height="500" width="500" clip-path="url('#clip-path-dot-color')" fill="#000000"/><rect x="19" y="19" height="154" width="154" clip-path="url('#clip-path-corners-square-color-0-0')" fill="#000000"/><rect x="63" y="63" height="66" width="66" clip-path="url('#clip-path-corners-dot-color-0-0')" fill="#000000"/><rect x="327" y="19" height="154" width="154" clip-path="url('#clip-path-corners-square-color-1-0')" fill="#000000"/><rect x="371" y="63" height="66" width="66" clip-path="url('#clip-path-corners-dot-color-1-0')" fill="#000000"/><rect x="19" y="327" height="154" width="154" clip-path="url('#clip-path-corners-square-color-0-1')" fill="#000000"/><rect x="63" y="371" height="66" width="66" clip-path="url('#clip-path-corners-dot-color-0-1')" fill="#000000"/></svg>