<?xml version="1.0" standalone="no"?>
<svg xmlns="http://www.w3.org/2000/svg" width="500" height="500"><defs><clipPath id="clip-path-dot-color"><path d="M 19 217v 22h 22v -11a 11 11, 0, 0, 0, -11 -11" transform="rotate(-90,30,228)"/><rect x="19" y="239" width="22" height="22" transform="rotate(0,30,250)"/><rect x="19" y="261" width="22" height="22" transform="rotate(0,30,272)"/><path d="M 19 283v 22h 22v -11a 11 11, 0, 0, 0, -11 -11" transform="rotate(180,30,294)"/><path d="M 41 195v 22h 11a 11 11, 0, 0, 0, 0 -22" transform="rotate(-90,52,206)"/><rect x="41" y="217" width="22" height="22" transform="rotate(0,52,228)"/><path d="M 41 239v 22h 22v -11a 11 11, 0, 0, 0, -11 -11" transform="rotate(90,52,250)"/><rect x="41" y="283" width="22" height="22" transform="rotate(0,52,294)"/><path d="M 63 217v 22h 11a 11 11, 0, 0, 0, 0 -22" transform="rotate(0,74,228)"/><path d="M 63 283v 22h 11a 11 11, 0, 0, 0, 0 -22" transform="rotate(0,74,294)"/><path d="M 85 195v 22h 11a 11 11, 0, 0, 0, 0 -22" transform="rotate(180,96,206)"/><path d="M 85 239v 22h 11a 11 11, 0, 0, 0, 0 -22" transform="rotate(-90,96,250)"/><path d="M 85 261v 22h 11a 11 11, 0, 0, 0, 0 -22" transform="rotate(90,96,272)"/><path d="M 107 195v 22h 22v -11a 11 11, 0, 0, 0, -11 -11" transform="rotate(0,118,206)"/><path d="M 107 217v 22h 11a 11 11, 0, 0, 0, 0 -22" transform="rotate(90,118,228)"/><circle cx="118" cy="294" r="11" transform="rotate(0,118,294)"/><path d="M 129 239v 22h 11a 11 11, 0, 0, 0, 0 -22" transform="rotate(180,140,250)"/><path d="M 151 195v 22h 11a 11 11, 0, 0, 0, 0 -22" transform="rotate(180,162,206)"/><path d="M 151 239v 22h 11a 11 11, 0, 0, 0, 0 -22" transform="rotate(0,162,250)"/><circle cx="162" cy="294" r="11" transform="rotate(0,162,294)"/><rect x="173" y="195" width="22" height="22" transform="rotate(0,184,206)"/><circle cx="206" cy="52" r="11" transform="rotate(0,206,52)"/><path d="M 195 85v 22h 22v -11a 11 11, 0, 0, 0, -11 -11" transform="rotate(-90,206,96)"/><rect x="195" y="107" width="22" height="22" transform="rotate(0,206,118)"/><rect x="195" y="129" width="22" height="22" transform="rotate(0,206,140)"/><path d="M 195 151v 22h 11a 11 11, 0, 0, 0, 0 -22" transform="rotate(90,206,162)"/><path d="M 195 195v 22h 11a 11 11, 0, 0, 0, 0 -22" transform="rotate(0,206,206)"/><circle cx="206" cy="250" r="11" transform="rotate(0,206,250)"/><path d="M 195 283v 22h 22v -11a 11 11, 0, 0, 0, -11 -11" transform="rotate(-90,206,294)"/><rect x="195" y="305" width="22" height="22" transform="rotate(0,206,316)"/><path d="M 195 327v 22h 11a 11 11, 0, 0, 0, 0 -22" transform="rotate(90,206,338)"/><path d="M 195 371v 22h 22v -11a 11 11, 0, 0, 0, -11 -11" transform="rotate(-90,206,382)"/><path d="M 195 393v 22h 22v -11a 11 11, 0, 0, 0, -11 -11" transform="rotate(180,206,404)"/><circle cx="206" cy="448" r="11" transform="rotate(0,206,448)"/><path d="M 217 19v 22h 11a 11 11, 0, 0, 0, 0 -22" transform="rotate(180,228,30)"/><path d="M 217 63v 22h 22v -11a 11 11, 0, 0, 0, -11 -11" transform="rotate(-90,228,74)"/><rect x="217" y="85" width="22" height="22" transform="rotate(0,228,96)"/><rect x="217" y="107" width="22" height="22" transform="rotate(0,228,118)"/><path d="M 217 173v 22h 11a 11 11, 0, 0, 0, 0 -22" transform="rotate(180,228,184)"/><path d="M 217 261v 22h 11a 11 11, 0, 0, 0, 0 -22" transform="rotate(-90,228,272)"/><rect x="217" y="283" width="22" height="22" transform="rotate(0,228,294)"/><path d="M 217 305v 22h 22v -11a 11 11, 0, 0, 0, -11 -11" transform="rotate(90,228,316)"/><path d="M 217 371v 22h 22v -11a 11 11, 0, 0, 0, -11 -11" transform="rotate(0,228,382)"/><rect x="217" y="393" width="22" height="22" transform="rotate(0,228,404)"/><path d="M 217 415v 22h 22v -11a 11 11, 0, 0, 0, -11 -11" transform="rotate(180,228,426)"/><rect x="239" y="19" width="22" height="22" transform="rotate(0,250,30)"/><rect x="239" y="63" width="22" height="22" transform="rotate(0,250,74)"/><rect x="239" y="85" width="22" height="22" transform="rotate(0,250,96)"/><path d="M 239 107v 22h 22v -11a 11 11, 0, 0, 0, -11 -11" transform="rotate(90,250,118)"/><path d="M 239 151v 22h 11a 11 11, 0, 0, 0, 0 -22" transform="rotate(-90,250,162)"/><rect x="239" y="173" width="22" height="22" transform="rotate(0,250,184)"/><path d="M 239 217v 22h 11a 11 11, 0, 0, 0, 0 -22" transform="rotate(180,250,228)"/><circle cx="250" cy="360" r="11" transform="rotate(0,250,360)"/><rect x="239" y="415" width="22" height="22" transform="rotate(0,250,426)"/><rect x="239" y="437" width="22" height="22" transform="rotate(0,250,448)"/><path d="M 239 459v 22h 11a 11 11, 0, 0, 0, 0 -22" transform="rotate(90,250,470)"/><path d="M 261 19v 22h 11a 11 11, 0, 0, 0, 0 -22" transform="rotate(0,272,30)"/><path d="M 261 63v 22h 11a 11 11, 0, 0, 0, 0 -22" transform="rotate(0,272,74)"/><rect x="261" y="173" width="22" height="22" transform="rotate(0,272,184)"/><rect x="261" y="195" width="22" height="22" transform="rotate(0,272,206)"/><rect x="261" y="217" width="22" height="22" transform="rotate(0,272,228)"/><path d="M 261 239v 22h 22v -11a 11 11, 0, 0, 0, -11 -11" transform="rotate(180,272,250)"/><path d="M 261 305v 22h 22v -11a 11 11, 0, 0, 0, -11 -11" transform="rotate(-90,272,316)"/><path d="M 261 327v 22h 22v -11a 11 11, 0, 0, 0, -11 -11" transform="rotate(180,272,338)"/><path d="M 261 371v 22h 11a 11 11, 0, 0, 0, 0 -22" transform="rotate(180,272,382)"/><path d="M 261 415v 22h 11a 11 11, 0, 0, 0, 0 -22" transform="rotate(0,272,426)"/><path d="M 283 85v 22h 11a 11 11, 0, 0, 0, 0 -22" transform="rotate(-90,294,96)"/><rect x="283" y="107" width="22" height="22" transform="rotate(0,294,118)"/><rect x="283" y="129" width="22" height="22" transform="rotate(0,294,140)"/><rect x="283" y="151" width="22" height="22" transform="rotate(0,294,162)"/><rect x="283" y="173" width="22" height="22" transform="rotate(0,294,184)"/><rect x="283" y="195" width="22" height="22" transform="rotate(0,294,206)"/><rect x="283" y="217" width="22" height="22" transform="rotate(0,294,228)"/><rect x="283" y="239" width="22" height="22" transform="rotate(0,294,250)"/><path d="M 283 261v 22h 22v -11a 11 11, 0, 0, 0, -11 -11" transform="rotate(180,294,272)"/><rect x="283" y="305" width="22" height="22" transform="rotate(0,294,316)"/><rect x="283" y="327" width="22" height="22" transform="rotate(0,294,338)"/><rect x="283" y="349" width="22" height="22" transform="rotate(0,294,360)"/><rect x="283" y="371" width="22" height="22" transform="rotate(0,294,382)"/><path d="M 283 437v 22h 11a 11 11, 0, 0, 0, 0 -22" transform="rotate(-90,294,448)"/><path d="M 283 459v 22h 22v -11a 11 11, 0, 0, 0, -11 -11" transform="rotate(180,294,470)"/><path d="M 305 195v 22h 22v -11a 11 11, 0, 0, 0, -11 -11" transform="rotate(0,316,206)"/><rect x="305" y="217" width="22" height="22" transform="rotate(0,316,228)"/><rect x="305" y="239" width="22" height="22" transform="rotate(0,316,250)"/><path d="M 305 261v 22h 22v -11a 11 11, 0, 0, 0, -11 -11" transform="rotate(90,316,272)"/><path d="M 305 305v 22h 22v -11a 11 11, 0, 0, 0, -11 -11" transform="rotate(0,316,316)"/><rect x="305" y="327" width="22" height="22" transform="rotate(0,316,338)"/><rect x="305" y="349" width="22" height="22" transform="rotate(0,316,360)"/><rect x="305" y="371" width="22" height="22" transform="rotate(0,316,382)"/><circle cx="316" cy="426" r="11" transform="rotate(0,316,426)"/><path d="M 305 459v 22h 11a 11 11, 0, 0, 0, 0 -22" transform="rotate(0,316,470)"/><path d="M 327 283v 22h 11a 11 11, 0, 0, 0, 0 -22" transform="rotate(180,338,294)"/><path d="M 327 349v 22h 22v -11a 11 11, 0, 0, 0, -11 -11" transform="rotate(0,338,360)"/><path d="M 327 371v 22h 22v -11a 11 11, 0, 0, 0, -11 -11" transform="rotate(90,338,382)"/><path d="M 349 195v 22h 11a 11 11, 0, 0, 0, 0 -22" transform="rotate(180,360,206)"/><circle cx="360" cy="250" r="11" transform="rotate(0,360,250)"/><rect x="349" y="283" width="22" height="22" transform="rotate(0,360,294)"/><path d="M 349 327v 22h 11a 11 11, 0, 0, 0, 0 -22" transform="rotate(180,360,338)"/><path d="M 349 393v 22h 11a 11 11, 0, 0, 0, 0 -22" transform="rotate(-90,360,404)"/><rect x="349" y="415" width="22" height="22" transform="rotate(0,360,426)"/><path d="M 349 437v 22h 22v -11a 11 11, 0, 0, 0, -11 -11" transform="rotate(180,360,448)"/><rect x="371" y="195" width="22" height="22" transform="rotate(0,382,206)"/><path d="M 371 217v 22h 22v -11a 11 11, 0, 0, 0, -11 -11" transform="rotate(180,382,228)"/><rect x="371" y="283" width="22" height="22" transform="rotate(0,382,294)"/><rect x="371" y="305" width="22" height="22" transform="rotate(0,382,316)"/><rect x="371" y="327" width="22" height="22" transform="rotate(0,382,338)"/><circle cx="382" cy="382" r="11" transform="rotate(0,382,382)"/><path d="M 371 437v 22h 22v -11a 11 11, 0, 0, 0, -11 -11" transform="rotate(0,382,448)"/><path d="M 371 459v 22h 11a 11 11, 0, 0, 0, 0 -22" transform="rotate(90,382,470)"/><path d="M 393 195v 22h 22v -11a 11 11, 0, 0, 0, -11 -11" transform="rotate(0,404,206)"/><rect x="393" y="217" width="22" height="22" transform="rotate(0,404,228)"/><path d="M 393 239v 22h 11a 11 11, 0, 0, 0, 0 -22" transform="rotate(90,404,250)"/><rect x="393" y="283" width="22" height="22" transform="rotate(0,404,294)"/><rect x="393" y="305" width="22" height="22" transform="rotate(0,404,316)"/><path d="M 393 327v 22h 22v -11a 11 11, 0, 0, 0, -11 -11" transform="rotate(90,404,338)"/><path d="M 393 393v 22h 11a 11 11, 0, 0, 0, 0 -22" transform="rotate(-90,404,404)"/><path d="M 393 415v 22h 11a 11 11, 0, 0, 0, 0 -22" transform="rotate(90,404,426)"/><rect x="415" y="217" width="22" height="22" transform="rotate(0,426,228)"/><path d="M 415 261v 22h 22v -11a 11 11, 0, 0, 0, -11 -11" transform="rotate(-90,426,272)"/><rect x="415" y="283" width="22" height="22" transform="rotate(0,426,294)"/><path d="M 415 305v 22h 22v -11a 11 11, 0, 0, 0, -11 -11" transform="rotate(90,426,316)"/><path d="M 415 371v 22h 11a 11 11, 0, 0, 0, 0 -22" transform="rotate(180,426,382)"/><path d="M 415 437v 22h 22v -11a 11 11, 0, 0, 0, -11 -11" transform="rotate(-90,426,448)"/><path d="M 415 459v 22h 22v -11a 11 11, 0, 0, 0, -11 -11" transform="rotate(180,426,470)"/><path d="M 437 195v 22h 11a 11 11, 0, 0, 0, 0 -22" transform="rotate(-90,448,206)"/><rect x="437" y="217" width="22" height="22" transform="rotate(0,448,228)"/><rect x="437" y="239" width="22" height="22" transform="rotate(0,448,250)"/><rect x="437" y="261" width="22" height="22" transform="rotate(0,448,272)"/><rect x="437" y="283" width="22" height="22" transform="rotate(0,448,294)"/><path d="M 437 349v 22h 11a 11 11, 0, 0, 0, 0 -22" transform="rotate(-90,448,360)"/><rect x="437" y="371" width="22" height="22" transform="rotate(0,448,382)"/><rect x="437" y="393" width="22" height="22" transform="rotate(0,448,404)"/><rect x="437" y="415" width="22" height="22" transform="rotate(0,448,426)"/><rect x="437" y="437" width="22" height="22" transform="rotate(0,448,448)"/><path d="M 437 459v 22h 22v -11a 11 11, 0, 0, 0, -11 -11" transform="rotate(90,448,470)"/><path d="M 459 217v 22h 22v -11a 11 11, 0, 0, 0, -11 -11" transform="rotate(0,470,228)"/><path d="M 459 239v 22h 22v -11a 11 11, 0, 0, 0, -11 -11" transform="rotate(90,470,250)"/><path d="M 459 283v 22h 22v -11a 11 11, 0, 0, 0, -11 -11" transform="rotate(0,470,294)"/><path d="M 459 305v 22h 11a 11 11, 0, 0, 0, 0 -22" transform="rotate(90,470,316)"/></clipPath><clipPath id="clip-path-corners-square-color-0-0"><path clip-rule="evenodd" d="M 19 74v 44a 55 55, 0, 0, 0, 55 55h 44a 55 55, 0, 0, 0, 55 -55v -44a 55 55, 0, 0, 0, -55 -55h -44a 55 55, 0, 0, 0, -55 55M 74 41h 44a 33 33, 0, 0, 1, 33 33v 44a 33 33, 0, 0, 1, -33 33h -44a 33 33, 0, 0, 1, -33 -33v -44a 33 33, 0, 0, 1, 33 -33" transform="rotate(0,96,96)"/></clipPath><clipPath id="clip-path-corners-dot-color-0-0"><circle cx="96" cy="96" r="33" transform="rotate(0,96,96)"/></clipPath><clipPath id="clip-path-corners-square-color-1-0"><path clip-rule="evenodd" d="M 327 74v 44a 55 55, 0, 0, 0, 55 55h 44a 55 55, 0, 0, 0, 55 -55v -44a 55 55, 0, 0, 0, -55 -55h -44a 55 55, 0, 0, 0, -55 55M 382 41h 44a 33 33, 0, 0, 1, 33 33v 44a 33 33, 0, 0, 1, -33 33h -44a 33 33, 0, 0, 1, -33 -33v -44a 33 33, 0, 0, 1, 33 -33" transform="rotate(90,404,96)"/></clipPath><clipPath id="clip-path-corners-dot-color-1-0"><circle cx="404" cy="96" r="33" transform="rotate(90,404,96)"/></clipPath><clipPath id="clip-path-corners-square-color-0-1"><path clip-rule="evenodd" d="M 19 382v 44a 55 55, 0, 0, 0, 55 55h 44a 55 55, 0, 0, 0, 55 -55v -44a 55 55, 0, 0, 0, -55 -55h -44a 55 55, 0, 0, 0, -55 55M 74 349h 44a 33 33, 0, 0, 1, 33 33v 44a 33 33, 0, 0, 1, -33 33h -44a 33 33, 0, 0, 1, -33 -33v -44a 33 33, 0, 0, 1, 33 -33" transform="rotate(-90,96,404)"/></clipPath><clipPath id="clip-path-corners-dot-color-0-1"><circle cx="96" cy="404" r="33" transform="rotate(-90,96,404)"/></clipPath></defs><rect x="0" y="0" height="500" width="500" clip-path="url('#clip-path-background-color')" fill="#fff"/><rect x="0" y="0" height="500" width="500" clip-path="url('#clip-path-dot-color')" fill="#000000"/><rect x="19" y="19" height="154" width="154" clip-path="url('#clip-path-corners-square-color-0-0')" fill="#000000"/><rect x="63" y="63" height="66" width="66" clip-path="url('#clip-path-corners-dot-color-0-0')" fill="#000000"/><rect x="327" y="19" height="154" width="154" clip-path="url('#clip-path-corners-square-color-1-0')" fill="#000000"/><rect x="371" y="63" height="66" width="66" clip-path="url('#clip-path-corners-dot-color-1-0')" fill="#000000"/><rect x="19" y="327" height="154" width="154" clip-path="url('#clip-path-corners-square-color-0-1')" fill="#000000"/><rect x="63" y="371" height="66" width="66" clip-path="url('#clip-path-corners-dot-color-0-1')" fill="#000000"/></svg>