<?xml version="1.0" standalone="no"?>
<svg xmlns="http://www.w3.org/2000/svg" width="500" height="500"><defs><clipPath id="clip-path-dot-color"><path d="M 19 195v 22h 22v -11a 11 11, 0, 0, 0, -11 -11" transform="rotate(-90,30,206)"/><rect x="19" y="217" width="22" height="22" transform="rotate(0,30,228)"/><rect x="19" y="239" width="22" height="22" transform="rotate(0,30,250)"/><rect x="19" y="261" width="22" height="22" transform="rotate(0,30,272)"/><path d="M 19 283v 22h 11a 11 11, 0, 0, 0, 0 -22" transform="rotate(90,30,294)"/><path d="M 41 195v 22h 11a 11 11, 0, 0, 0, 0 -22" transform="rotate(0,52,206)"/><rect x="41" y="261" width="22" height="22" transform="rotate(0,52,272)"/><path d="M 63 217v 22h 22v -11a 11 11, 0, 0, 0, -11 -11" transform="rotate(-90,74,228)"/><rect x="63" y="239" width="22" height="22" transform="rotate(0,74,250)"/><rect x="63" y="261" width="22" height="22" transform="rotate(0,74,272)"/><path d="M 85 217v 22h 22v -11a 11 11, 0, 0, 0, -11 -11" transform="rotate(0,96,228)"/><rect x="85" y="239" width="22" height="22" transform="rotate(0,96,250)"/><path d="M 85 261v 22h 22v -11a 11 11, 0, 0, 0, -11 -11" transform="rotate(90,96,272)"/><path d="M 107 283v 22h 11a 11 11, 0, 0, 0, 0 -22" transform="rotate(180,118,294)"/><circle cx="140" cy="228" r="11" transform="rotate(0,140,228)"/><rect x="129" y="283" width="22" height="22" transform="rotate(0,140,294)"/><circle cx="162" cy="206" r="11" transform="rotate(0,162,206)"/><path d="M 151 239v 22h 11a 11 11, 0, 0, 0, 0 -22" transform="rotate(180,162,250)"/><rect x="151" y="283" width="22" height="22" transform="rotate(0,162,294)"/><rect x="173" y="239" width="22" height="22" transform="rotate(0,184,250)"/><rect x="173" y="261" width="22" height="22" transform="rotate(0,184,272)"/><path d="M 173 283v 22h 22v -11a 11 11, 0, 0, 0, -11 -11" transform="rotate(90,184,294)"/><circle cx="206" cy="52" r="11" transform="rotate(0,206,52)"/><path d="M 195 151v 22h 11a 11 11, 0, 0, 0, 0 -22" transform="rotate(-90,206,162)"/><rect x="195" y="173" width="22" height="22" transform="rotate(0,206,184)"/><rect x="195" y="195" width="22" height="22" transform="rotate(0,206,206)"/><rect x="195" y="217" width="22" height="22" transform="rotate(0,206,228)"/><path d="M 195 239v 22h 22v -11a 11 11, 0, 0, 0, -11 -11" transform="rotate(90,206,250)"/><path d="M 195 305v 22h 11a 11 11, 0, 0, 0, 0 -22" transform="rotate(180,206,316)"/><path d="M 195 437v 22h 11a 11 11, 0, 0, 0, 0 -22" transform="rotate(-90,206,448)"/><path d="M 195 459v 22h 11a 11 11, 0, 0, 0, 0 -22" transform="rotate(90,206,470)"/><path d="M 217 63v 22h 11a 11 11, 0, 0, 0, 0 -22" transform="rotate(180,228,74)"/><path d="M 217 107v 22h 11a 11 11, 0, 0, 0, 0 -22" transform="rotate(180,228,118)"/><path d="M 217 195v 22h 11a 11 11, 0, 0, 0, 0 -22" transform="rotate(0,228,206)"/><circle cx="228" cy="272" r="11" transform="rotate(0,228,272)"/><path d="M 217 305v 22h 11a 11 11, 0, 0, 0, 0 -22" transform="rotate(0,228,316)"/><path d="M 217 371v 22h 11a 11 11, 0, 0, 0, 0 -22" transform="rotate(-90,228,382)"/><rect x="217" y="393" width="22" height="22" transform="rotate(0,228,404)"/><path d="M 217 415v 22h 22v -11a 11 11, 0, 0, 0, -11 -11" transform="rotate(180,228,426)"/><path d="M 239 19v 22h 11a 11 11, 0, 0, 0, 0 -22" transform="rotate(-90,250,30)"/><rect x="239" y="41" width="22" height="22" transform="rotate(0,250,52)"/><rect x="239" y="63" width="22" height="22" transform="rotate(0,250,74)"/><path d="M 239 107v 22h 11a 11 11, 0, 0, 0, 0 -22" transform="rotate(0,250,118)"/><path d="M 239 151v 22h 11a 11 11, 0, 0, 0, 0 -22" transform="rotate(-90,250,162)"/><path d="M 239 173v 22h 11a 11 11, 0, 0, 0, 0 -22" transform="rotate(90,250,184)"/><circle cx="250" cy="228" r="11" transform="rotate(0,250,228)"/><path d="M 239 283v 22h 11a 11 11, 0, 0, 0, 0 -22" transform="rotate(180,250,294)"/><path d="M 239 327v 22h 22v -11a 11 11, 0, 0, 0, -11 -11" transform="rotate(-90,250,338)"/><path d="M 239 349v 22h 11a 11 11, 0, 0, 0, 0 -22" transform="rotate(90,250,360)"/><rect x="239" y="393" width="22" height="22" transform="rotate(0,250,404)"/><rect x="239" y="415" width="22" height="22" transform="rotate(0,250,426)"/><path d="M 239 437v 22h 11a 11 11, 0, 0, 0, 0 -22" transform="rotate(90,250,448)"/><rect x="261" y="41" width="22" height="22" transform="rotate(0,272,52)"/><path d="M 261 63v 22h 22v -11a 11 11, 0, 0, 0, -11 -11" transform="rotate(90,272,74)"/><path d="M 261 195v 22h 11a 11 11, 0, 0, 0, 0 -22" transform="rotate(180,272,206)"/><rect x="261" y="283" width="22" height="22" transform="rotate(0,272,294)"/><rect x="261" y="305" width="22" height="22" transform="rotate(0,272,316)"/><rect x="261" y="327" width="22" height="22" transform="rotate(0,272,338)"/><path d="M 261 371v 22h 22v -11a 11 11, 0, 0, 0, -11 -11" transform="rotate(-90,272,382)"/><rect x="261" y="393" width="22" height="22" transform="rotate(0,272,404)"/><path d="M 261 415v 22h 22v -11a 11 11, 0, 0, 0, -11 -11" transform="rotate(90,272,426)"/><path d="M 283 41v 22h 11a 11 11, 0, 0, 0, 0 -22" transform="rotate(0,294,52)"/><path d="M 283 85v 22h 11a 11 11, 0, 0, 0, 0 -22" transform="rotate(-90,294,96)"/><rect x="283" y="107" width="22" height="22" transform="rotate(0,294,118)"/><rect x="283" y="129" width="22" height="22" transform="rotate(0,294,140)"/><path d="M 283 151v 22h 11a 11 11, 0, 0, 0, 0 -22" transform="rotate(90,294,162)"/><rect x="283" y="195" width="22" height="22" transform="rotate(0,294,206)"/><circle cx="294" cy="250" r="11" transform="rotate(0,294,250)"/><path d="M 283 283v 22h 22v -11a 11 11, 0, 0, 0, -11 -11" transform="rotate(0,294,294)"/><rect x="283" y="305" width="22" height="22" transform="rotate(0,294,316)"/><rect x="283" y="327" width="22" height="22" transform="rotate(0,294,338)"/><rect x="283" y="349" width="22" height="22" transform="rotate(0,294,360)"/><rect x="283" y="371" width="22" height="22" transform="rotate(0,294,382)"/><path d="M 283 437v 22h 22v -11a 11 11, 0, 0, 0, -11 -11" transform="rotate(-90,294,448)"/><path d="M 283 459v 22h 11a 11 11, 0, 0, 0, 0 -22" transform="rotate(90,294,470)"/><rect x="305" y="195" width="22" height="22" transform="rotate(0,316,206)"/><path d="M 305 217v 22h 11a 11 11, 0, 0, 0, 0 -22" transform="rotate(90,316,228)"/><path d="M 305 261v 22h 11a 11 11, 0, 0, 0, 0 -22" transform="rotate(180,316,272)"/><rect x="305" y="349" width="22" height="22" transform="rotate(0,316,360)"/><path d="M 305 371v 22h 22v -11a 11 11, 0, 0, 0, -11 -11" transform="rotate(90,316,382)"/><path d="M 305 415v 22h 11a 11 11, 0, 0, 0, 0 -22" transform="rotate(-90,316,426)"/><rect x="305" y="437" width="22" height="22" transform="rotate(0,316,448)"/><path d="M 327 195v 22h 11a 11 11, 0, 0, 0, 0 -22" transform="rotate(0,338,206)"/><path d="M 327 239v 22h 11a 11 11, 0, 0, 0, 0 -22" transform="rotate(-90,338,250)"/><rect x="327" y="261" width="22" height="22" transform="rotate(0,338,272)"/><rect x="327" y="283" width="22" height="22" transform="rotate(0,338,294)"/><path d="M 327 305v 22h 11a 11 11, 0, 0, 0, 0 -22" transform="rotate(90,338,316)"/><path d="M 327 349v 22h 11a 11 11, 0, 0, 0, 0 -22" transform="rotate(0,338,360)"/><rect x="327" y="437" width="22" height="22" transform="rotate(0,338,448)"/><path d="M 349 217v 22h 11a 11 11, 0, 0, 0, 0 -22" transform="rotate(180,360,228)"/><rect x="349" y="261" width="22" height="22" transform="rotate(0,360,272)"/><path d="M 349 283v 22h 22v -11a 11 11, 0, 0, 0, -11 -11" transform="rotate(90,360,294)"/><circle cx="360" cy="338" r="11" transform="rotate(0,360,338)"/><path d="M 349 393v 22h 22v -11a 11 11, 0, 0, 0, -11 -11" transform="rotate(-90,360,404)"/><rect x="349" y="415" width="22" height="22" transform="rotate(0,360,426)"/><rect x="349" y="437" width="22" height="22" transform="rotate(0,360,448)"/><rect x="371" y="217" width="22" height="22" transform="rotate(0,382,228)"/><rect x="371" y="239" width="22" height="22" transform="rotate(0,382,250)"/><rect x="371" y="261" width="22" height="22" transform="rotate(0,382,272)"/><path d="M 371 305v 22h 11a 11 11, 0, 0, 0, 0 -22" transform="rotate(180,382,316)"/><path d="M 371 371v 22h 22v -11a 11 11, 0, 0, 0, -11 -11" transform="rotate(-90,382,382)"/><path d="M 371 393v 22h 22v -11a 11 11, 0, 0, 0, -11 -11" transform="rotate(90,382,404)"/><path d="M 371 437v 22h 11a 11 11, 0, 0, 0, 0 -22" transform="rotate(0,382,448)"/><path d="M 393 217v 22h 11a 11 11, 0, 0, 0, 0 -22" transform="rotate(0,404,228)"/><rect x="393" y="261" width="22" height="22" transform="rotate(0,404,272)"/><rect x="393" y="283" width="22" height="22" transform="rotate(0,404,294)"/><rect x="393" y="305" width="22" height="22" transform="rotate(0,404,316)"/><path d="M 393 327v 22h 11a 11 11, 0, 0, 0, 0 -22" transform="rotate(90,404,338)"/><rect x="393" y="371" width="22" height="22" transform="rotate(0,404,382)"/><circle cx="404" cy="426" r="11" transform="rotate(0,404,426)"/><path d="M 415 239v 22h 11a 11 11, 0, 0, 0, 0 -22" transform="rotate(-90,426,250)"/><rect x="415" y="261" width="22" height="22" transform="rotate(0,426,272)"/><rect x="415" y="283" width="22" height="22" transform="rotate(0,426,294)"/><rect x="415" y="305" width="22" height="22" transform="rotate(0,426,316)"/><rect x="415" y="371" width="22" height="22" transform="rotate(0,426,382)"/><path d="M 415 437v 22h 11a 11 11, 0, 0, 0, 0 -22" transform="rotate(-90,426,448)"/><path d="M 415 459v 22h 11a 11 11, 0, 0, 0, 0 -22" transform="rotate(90,426,470)"/><circle cx="448" cy="206" r="11" transform="rotate(0,448,206)"/><path d="M 437 261v 22h 22v -11a 11 11, 0, 0, 0, -11 -11" transform="rotate(0,448,272)"/><rect x="437" y="283" width="22" height="22" transform="rotate(0,448,294)"/><rect x="437" y="305" width="22" height="22" transform="rotate(0,448,316)"/><rect x="437" y="327" width="22" height="22" transform="rotate(0,448,338)"/><rect x="437" y="349" width="22" height="22" transform="rotate(0,448,360)"/><rect x="437" y="371" width="22" height="22" transform="rotate(0,448,382)"/><rect x="437" y="393" width="22" height="22" transform="rotate(0,448,404)"/><path d="M 437 415v 22h 11a 11 11, 0, 0, 0, 0 -22" transform="rotate(90,448,426)"/><path d="M 459 283v 22h 11a 11 11, 0, 0, 0, 0 -22" transform="rotate(0,470,294)"/><path d="M 459 371v 22h 11a 11 11, 0, 0, 0, 0 -22" transform="rotate(0,470,382)"/><circle cx="470" cy="448" r="11" transform="rotate(0,470,448)"/></clipPath><clipPath id="clip-path-corners-square-color-0-0"><path clip-rule="evenodd" d="M 19 74v 44a 55 55, 0, 0, 0, 55 55h 44a 55 55, 0, 0, 0, 55 -55v -44a 55 55, 0, 0, 0, -55 -55h -44a 55 55, 0, 0, 0, -55 55M 74 41h 44a 33 33, 0, 0, 1, 33 33v 44a 33 33, 0, 0, 1, -33 33h -44a 33 33, 0, 0, 1, -33 -33v -44a 33 33, 0, 0, 1, 33 -33" transform="rotate(0,96,96)"/></clipPath><clipPath id="clip-path-corners-dot-color-0-0"><circle cx="96" cy="96" r="33" transform="rotate(0,96,96)"/></clipPath><clipPath id="clip-path-corners-square-color-1-0"><path clip-rule="evenodd" d="M 327 74v 44a 55 55, 0, 0, 0, 55 55h 44a 55 55, 0, 0, 0, 55 -55v -44a 55 55, 0, 0, 0, -55 -55h -44a 55 55, 0, 0, 0, -55 55M 382 41h 44a 33 33, 0, 0, 1, 33 33v 44a 33 33, 0, 0, 1, -33 33h -44a 33 33, 0, 0, 1, -33 -33v -44a 33 33, 0, 0, 1, 33 -33" transform="rotate(90,404,96)"/></clipPath><clipPath id="clip-path-corners-dot-color-1-0"><circle cx="404" cy="96" r="33" transform="rotate(90,404,96)"/></clipPath><clipPath id="clip-path-corners-square-color-0-1"><path clip-rule="evenodd" d="M 19 382v 44a 55 55, 0, 0, 0, 55 55h 44a 55 55, 0, 0, 0, 55 -55v -44a 55 55, 0, 0, 0, -55 -55h -44a 55 55, 0, 0, 0, -55 55M 74 349h 44a 33 33, 0, 0, 1, 33 33v 44a 33 33, 0, 0, 1, -33 33h -44a 33 33, 0, 0, 1, -33 -33v -44a 33 33, 0, 0, 1, 33 -33" transform="rotate(-90,96,404)"/></clipPath><clipPath id="clip-path-corners-dot-color-0-1"><circle cx="96" cy="404" r="33" transform="rotate(-90,96,404)"/></clipPath></defs><rect x="0" y="0" height="500" width="500" clip-path="url('#clip-path-background-color')" fill="#fff"/><rect x="0" y="0" height="500" width="500" clip-path="url('#clip-path-dot-color')" fill="#000000"/><rect x="19" y="19" height="154" width="154" clip-path="url('#clip-path-corners-square-color-0-0')" fill="#000000"/><rect x="63" y="63" height="66" width="66" clip-path="url('#clip-path-corners-dot-color-0-0')" fill="#000000"/><rect x="327" y="19" height="154" width="154" clip-path="url('#clip-path-corners-square-color-1-0')" fill="#000000"/><rect x="371" y="63" height="66" width="66" clip-path="url('#clip-path-corners-dot-color-1-0')" fill="#000000"/><rect x="19" y="327" height="154" width="154" clip-path="url('#clip-path-corners-square-color-0-1')" fill="#000000"/><rect x="63" y="371" height="66" width="66" clip-path="url('#clip-path-corners-dot-color-0-1')" fill="#000000"/></svg>