<?xml version="1.0" standalone="no"?>
<svg xmlns="http://www.w3.org/2000/svg" width="500" height="500"><defs><clipPath id="clip-path-dot-color"><path d="M 19 195v 22h 22v -11a 11 11, 0, 0, 0, -11 -11" transform="rotate(-90,30,206)"/><path d="M 19 217v 22h 11a 11 11, 0, 0, 0, 0 -22" transform="rotate(90,30,228)"/><rect x="41" y="195" width="22" height="22" transform="rotate(0,52,206)"/><path d="M 41 239v 22h 11a 11 11, 0, 0, 0, 0 -22" transform="rotate(-90,52,250)"/><rect x="41" y="261" width="22" height="22" transform="rotate(0,52,272)"/><path d="M 41 283v 22h 22v -11a 11 11, 0, 0, 0, -11 -11" transform="rotate(180,52,294)"/><rect x="63" y="195" width="22" height="22" transform="rotate(0,74,206)"/><path d="M 63 217v 22h 11a 11 11, 0, 0, 0, 0 -22" transform="rotate(90,74,228)"/><rect x="63" y="261" width="22" height="22" transform="rotate(0,74,272)"/><rect x="63" y="283" width="22" height="22" transform="rotate(0,74,294)"/><rect x="85" y="195" width="22" height="22" transform="rotate(0,96,206)"/><rect x="85" y="261" width="22" height="22" transform="rotate(0,96,272)"/><path d="M 85 283v 22h 22v -11a 11 11, 0, 0, 0, -11 -11" transform="rotate(90,96,294)"/><path d="M 107 195v 22h 22v -11a 11 11, 0, 0, 0, -11 -11" transform="rotate(0,118,206)"/><rect x="107" y="217" width="22" height="22" transform="rotate(0,118,228)"/><rect x="107" y="239" width="22" height="22" transform="rotate(0,118,250)"/><path d="M 107 261v 22h 22v -11a 11 11, 0, 0, 0, -11 -11" transform="rotate(90,118,272)"/><path d="M 129 217v 22h 11a 11 11, 0, 0, 0, 0 -22" transform="rotate(0,140,228)"/><path d="M 151 195v 22h 11a 11 11, 0, 0, 0, 0 -22" transform="rotate(180,162,206)"/><path d="M 151 239v 22h 11a 11 11, 0, 0, 0, 0 -22" transform="rotate(180,162,250)"/><path d="M 151 283v 22h 11a 11 11, 0, 0, 0, 0 -22" transform="rotate(180,162,294)"/><path d="M 173 195v 22h 11a 11 11, 0, 0, 0, 0 -22" transform="rotate(0,184,206)"/><path d="M 173 239v 22h 22v -11a 11 11, 0, 0, 0, -11 -11" transform="rotate(0,184,250)"/><rect x="173" y="261" width="22" height="22" transform="rotate(0,184,272)"/><rect x="173" y="283" width="22" height="22" transform="rotate(0,184,294)"/><path d="M 195 41v 22h 11a 11 11, 0, 0, 0, 0 -22" transform="rotate(-90,206,52)"/><path d="M 195 63v 22h 22v -11a 11 11, 0, 0, 0, -11 -11" transform="rotate(180,206,74)"/><path d="M 195 107v 22h 11a 11 11, 0, 0, 0, 0 -22" transform="rotate(180,206,118)"/><path d="M 195 151v 22h 11a 11 11, 0, 0, 0, 0 -22" transform="rotate(-90,206,162)"/><path d="M 195 173v 22h 11a 11 11, 0, 0, 0, 0 -22" transform="rotate(90,206,184)"/><path d="M 195 217v 22h 11a 11 11, 0, 0, 0, 0 -22" transform="rotate(180,206,228)"/><path d="M 195 283v 22h 11a 11 11, 0, 0, 0, 0 -22" transform="rotate(0,206,294)"/><path d="M 195 327v 22h 11a 11 11, 0, 0, 0, 0 -22" transform="rotate(180,206,338)"/><path d="M 195 371v 22h 11a 11 11, 0, 0, 0, 0 -22" transform="rotate(-90,206,382)"/><rect x="195" y="393" width="22" height="22" transform="rotate(0,206,404)"/><rect x="195" y="415" width="22" height="22" transform="rotate(0,206,426)"/><rect x="195" y="437" width="22" height="22" transform="rotate(0,206,448)"/><path d="M 195 459v 22h 22v -11a 11 11, 0, 0, 0, -11 -11" transform="rotate(180,206,470)"/><path d="M 217 63v 22h 11a 11 11, 0, 0, 0, 0 -22" transform="rotate(0,228,74)"/><path d="M 217 107v 22h 22v -11a 11 11, 0, 0, 0, -11 -11" transform="rotate(0,228,118)"/><path d="M 217 129v 22h 11a 11 11, 0, 0, 0, 0 -22" transform="rotate(90,228,140)"/><path d="M 217 217v 22h 11a 11 11, 0, 0, 0, 0 -22" transform="rotate(0,228,228)"/><path d="M 217 327v 22h 22v -11a 11 11, 0, 0, 0, -11 -11" transform="rotate(0,228,338)"/><path d="M 217 349v 22h 11a 11 11, 0, 0, 0, 0 -22" transform="rotate(90,228,360)"/><rect x="217" y="437" width="22" height="22" transform="rotate(0,228,448)"/><rect x="217" y="459" width="22" height="22" transform="rotate(0,228,470)"/><path d="M 239 19v 22h 11a 11 11, 0, 0, 0, 0 -22" transform="rotate(180,250,30)"/><circle cx="250" cy="162" r="11" transform="rotate(0,250,162)"/><path d="M 239 195v 22h 11a 11 11, 0, 0, 0, 0 -22" transform="rotate(180,250,206)"/><path d="M 239 239v 22h 11a 11 11, 0, 0, 0, 0 -22" transform="rotate(-90,250,250)"/><path d="M 239 261v 22h 11a 11 11, 0, 0, 0, 0 -22" transform="rotate(90,250,272)"/><path d="M 239 371v 22h 22v -11a 11 11, 0, 0, 0, -11 -11" transform="rotate(-90,250,382)"/><rect x="239" y="393" width="22" height="22" transform="rotate(0,250,404)"/><rect x="239" y="415" width="22" height="22" transform="rotate(0,250,426)"/><rect x="239" y="437" width="22" height="22" transform="rotate(0,250,448)"/><path d="M 239 459v 22h 22v -11a 11 11, 0, 0, 0, -11 -11" transform="rotate(90,250,470)"/><rect x="261" y="19" width="22" height="22" transform="rotate(0,272,30)"/><path d="M 261 41v 22h 22v -11a 11 11, 0, 0, 0, -11 -11" transform="rotate(180,272,52)"/><path d="M 261 85v 22h 11a 11 11, 0, 0, 0, 0 -22" transform="rotate(-90,272,96)"/><path d="M 261 107v 22h 22v -11a 11 11, 0, 0, 0, -11 -11" transform="rotate(180,272,118)"/><rect x="261" y="195" width="22" height="22" transform="rotate(0,272,206)"/><path d="M 261 327v 22h 11a 11 11, 0, 0, 0, 0 -22" transform="rotate(180,272,338)"/><rect x="261" y="371" width="22" height="22" transform="rotate(0,272,382)"/><path d="M 261 437v 22h 11a 11 11, 0, 0, 0, 0 -22" transform="rotate(0,272,448)"/><path d="M 283 19v 22h 22v -11a 11 11, 0, 0, 0, -11 -11" transform="rotate(0,294,30)"/><path d="M 283 41v 22h 22v -11a 11 11, 0, 0, 0, -11 -11" transform="rotate(90,294,52)"/><path d="M 283 107v 22h 22v -11a 11 11, 0, 0, 0, -11 -11" transform="rotate(0,294,118)"/><rect x="283" y="129" width="22" height="22" transform="rotate(0,294,140)"/><rect x="283" y="151" width="22" height="22" transform="rotate(0,294,162)"/><rect x="283" y="173" width="22" height="22" transform="rotate(0,294,184)"/><rect x="283" y="195" width="22" height="22" transform="rotate(0,294,206)"/><path d="M 283 217v 22h 22v -11a 11 11, 0, 0, 0, -11 -11" transform="rotate(180,294,228)"/><path d="M 283 261v 22h 11a 11 11, 0, 0, 0, 0 -22" transform="rotate(180,294,272)"/><path d="M 283 327v 22h 22v -11a 11 11, 0, 0, 0, -11 -11" transform="rotate(0,294,338)"/><rect x="283" y="349" width="22" height="22" transform="rotate(0,294,360)"/><rect x="283" y="371" width="22" height="22" transform="rotate(0,294,382)"/><path d="M 283 393v 22h 22v -11a 11 11, 0, 0, 0, -11 -11" transform="rotate(180,294,404)"/><circle cx="294" cy="470" r="11" transform="rotate(0,294,470)"/><rect x="305" y="195" width="22" height="22" transform="rotate(0,316,206)"/><rect x="305" y="217" width="22" height="22" transform="rotate(0,316,228)"/><path d="M 305 261v 22h 11a 11 11, 0, 0, 0, 0 -22" transform="rotate(0,316,272)"/><path d="M 305 305v 22h 11a 11 11, 0, 0, 0, 0 -22" transform="rotate(180,316,316)"/><rect x="305" y="371" width="22" height="22" transform="rotate(0,316,382)"/><path d="M 305 393v 22h 22v -11a 11 11, 0, 0, 0, -11 -11" transform="rotate(90,316,404)"/><path d="M 327 195v 22h 22v -11a 11 11, 0, 0, 0, -11 -11" transform="rotate(0,338,206)"/><rect x="327" y="217" width="22" height="22" transform="rotate(0,338,228)"/><rect x="327" y="305" width="22" height="22" transform="rotate(0,338,316)"/><path d="M 327 327v 22h 11a 11 11, 0, 0, 0, 0 -22" transform="rotate(90,338,338)"/><rect x="327" y="371" width="22" height="22" transform="rotate(0,338,382)"/><path d="M 327 437v 22h 11a 11 11, 0, 0, 0, 0 -22" transform="rotate(-90,338,448)"/><path d="M 327 459v 22h 22v -11a 11 11, 0, 0, 0, -11 -11" transform="rotate(180,338,470)"/><path d="M 349 217v 22h 22v -11a 11 11, 0, 0, 0, -11 -11" transform="rotate(0,360,228)"/><rect x="349" y="239" width="22" height="22" transform="rotate(0,360,250)"/><rect x="349" y="261" width="22" height="22" transform="rotate(0,360,272)"/><rect x="349" y="283" width="22" height="22" transform="rotate(0,360,294)"/><rect x="349" y="305" width="22" height="22" transform="rotate(0,360,316)"/><path d="M 349 349v 22h 22v -11a 11 11, 0, 0, 0, -11 -11" transform="rotate(-90,360,360)"/><path d="M 349 371v 22h 22v -11a 11 11, 0, 0, 0, -11 -11" transform="rotate(90,360,382)"/><rect x="349" y="459" width="22" height="22" transform="rotate(0,360,470)"/><circle cx="382" cy="206" r="11" transform="rotate(0,382,206)"/><rect x="371" y="239" width="22" height="22" transform="rotate(0,382,250)"/><path d="M 371 305v 22h 22v -11a 11 11, 0, 0, 0, -11 -11" transform="rotate(0,382,316)"/><rect x="371" y="327" width="22" height="22" transform="rotate(0,382,338)"/><rect x="371" y="349" width="22" height="22" transform="rotate(0,382,360)"/><path d="M 371 393v 22h 11a 11 11, 0, 0, 0, 0 -22" transform="rotate(180,382,404)"/><path d="M 371 437v 22h 22v -11a 11 11, 0, 0, 0, -11 -11" transform="rotate(-90,382,448)"/><path d="M 371 459v 22h 22v -11a 11 11, 0, 0, 0, -11 -11" transform="rotate(90,382,470)"/><path d="M 393 217v 22h 22v -11a 11 11, 0, 0, 0, -11 -11" transform="rotate(-90,404,228)"/><path d="M 393 239v 22h 22v -11a 11 11, 0, 0, 0, -11 -11" transform="rotate(90,404,250)"/><path d="M 393 327v 22h 22v -11a 11 11, 0, 0, 0, -11 -11" transform="rotate(0,404,338)"/><rect x="393" y="349" width="22" height="22" transform="rotate(0,404,360)"/><rect x="393" y="371" width="22" height="22" transform="rotate(0,404,382)"/><rect x="393" y="393" width="22" height="22" transform="rotate(0,404,404)"/><path d="M 393 437v 22h 11a 11 11, 0, 0, 0, 0 -22" transform="rotate(0,404,448)"/><path d="M 415 195v 22h 22v -11a 11 11, 0, 0, 0, -11 -11" transform="rotate(-90,426,206)"/><rect x="415" y="217" width="22" height="22" transform="rotate(0,426,228)"/><circle cx="426" cy="294" r="11" transform="rotate(0,426,294)"/><path d="M 415 349v 22h 22v -11a 11 11, 0, 0, 0, -11 -11" transform="rotate(0,426,360)"/><rect x="415" y="371" width="22" height="22" transform="rotate(0,426,382)"/><path d="M 415 393v 22h 22v -11a 11 11, 0, 0, 0, -11 -11" transform="rotate(90,426,404)"/><circle cx="426" cy="470" r="11" transform="rotate(0,426,470)"/><path d="M 437 195v 22h 22v -11a 11 11, 0, 0, 0, -11 -11" transform="rotate(0,448,206)"/><rect x="437" y="217" width="22" height="22" transform="rotate(0,448,228)"/><path d="M 437 239v 22h 11a 11 11, 0, 0, 0, 0 -22" transform="rotate(90,448,250)"/><path d="M 437 327v 22h 11a 11 11, 0, 0, 0, 0 -22" transform="rotate(180,448,338)"/><path d="M 437 371v 22h 11a 11 11, 0, 0, 0, 0 -22" transform="rotate(0,448,382)"/><path d="M 437 437v 22h 11a 11 11, 0, 0, 0, 0 -22" transform="rotate(180,448,448)"/><path d="M 459 217v 22h 11a 11 11, 0, 0, 0, 0 -22" transform="rotate(0,470,228)"/><circle cx="470" cy="294" r="11" transform="rotate(0,470,294)"/><path d="M 459 327v 22h 22v -11a 11 11, 0, 0, 0, -11 -11" transform="rotate(0,470,338)"/><path d="M 459 349v 22h 11a 11 11, 0, 0, 0, 0 -22" transform="rotate(90,470,360)"/><path d="M 459 437v 22h 22v -11a 11 11, 0, 0, 0, -11 -11" transform="rotate(0,470,448)"/><path d="M 459 459v 22h 11a 11 11, 0, 0, 0, 0 -22" transform="rotate(90,470,470)"/></clipPath><clipPath id="clip-path-corners-square-color-0-0"><path clip-rule="evenodd" d="M 19 74v 44a 55 55, 0, 0, 0, 55 55h 44a 55 55, 0, 0, 0, 55 -55v -44a 55 55, 0, 0, 0, -55 -55h -44a 55 55, 0, 0, 0, -55 55M 74 41h 44a 33 33, 0, 0, 1, 33 33v 44a 33 33, 0, 0, 1, -33 33h -44a 33 33, 0, 0, 1, -33 -33v -44a 33 33, 0, 0, 1, 33 -33" transform="rotate(0,96,96)"/></clipPath><clipPath id="clip-path-corners-dot-color-0-0"><circle cx="96" cy="96" r="33" transform="rotate(0,96,96)"/></clipPath><clipPath id="clip-path-corners-square-color-1-0"><path clip-rule="evenodd" d="M 327 74v 44a 55 55, 0, 0, 0, 55 55h 44a 55 55, 0, 0, 0, 55 -55v -44a 55 55, 0, 0, 0, -55 -55h -44a 55 55, 0, 0, 0, -55 55M 382 41h 44a 33 33, 0, 0, 1, 33 33v 44a 33 33, 0, 0, 1, -33 33h -44a 33 33, 0, 0, 1, -33 -33v -44a 33 33, 0, 0, 1, 33 -33" transform="rotate(90,404,96)"/></clipPath><clipPath id="clip-path-corners-dot-color-1-0"><circle cx="404" cy="96" r="33" transform="rotate(90,404,96)"/></clipPath><clipPath id="clip-path-corners-square-color-0-1"><path clip-rule="evenodd" d="M 19 382v 44a 55 55, 0, 0, 0, 55 55h 44a 55 55, 0, 0, 0, 55 -55v -44a 55 55, 0, 0, 0, -55 -55h -44a 55 55, 0, 0, 0, -55 55M 74 349h 44a 33 33, 0, 0, 1, 33 33v 44a 33 33, 0, 0, 1, -33 33h -44a 33 33, 0, 0, 1, -33 -33v -44a 33 33, 0, 0, 1, 33 -33" transform="rotate(-90,96,404)"/></clipPath><clipPath id="clip-path-corners-dot-color-0-1"><circle cx="96" cy="404" r="33" transform="rotate(-90,96,404)"/></clipPath></defs><rect x="0" y="0" height="500" width="500" clip-path="url('#clip-path-background-color')" fill="#fff"/><rect x="0" y="0" height="500" width="500" clip-path="url('#clip-path-dot-color')" fill="#000000"/><rect x="19" y="19" height="154" width="154" clip-path="url('#clip-path-corners-square-color-0-0')" fill="#000000"/><rect x="63" y="63" height="66" width="66" clip-path="url('#clip-path-corners-dot-color-0-0')" fill="#000000"/><rect x="327" y="19" height="154" width="154" clip-path="url('#clip-path-corners-square-color-1-0')" fill="#000000"/><rect x="371" y="63" height="66" width="66" clip-path="url('#clip-path-corners-dot-color-1-0')" fill="#000000"/><rect x="19" y="327" height="154" width="154" clip-path="url('#clip-path-corners-square-color-0-1')" fill="#000000"/><rect x="63" y="371" height="66" width="66" clip-path="url('#clip-path-corners-dot-color-0-1')" fill="#000000"/></svg>